<!DOCTYPE svg PUBLIC "-//W3C//DTD SVG 1.1//EN" "http://www.w3.org/Graphics/SVG/1.1/DTD/svg11.dtd">
<!-- Uploaded to: SVG Repo, www.svgrepo.com, Transformed by: SVG Repo Mixer Tools -->
<svg width="256px" height="256px" viewBox="0 0 24.00 24.00" fill="none" xmlns="http://www.w3.org/2000/svg" stroke="#ffffff" stroke-width="0.072">
<g id="SVGRepo_bgCarrier" stroke-width="0"/>
<g id="SVGRepo_tracerCarrier" stroke-linecap="round" stroke-linejoin="round"/>
<g id="SVGRepo_iconCarrier">
<path fill-rule="evenodd" clip-rule="evenodd" d="M21 5.4v13.2a2.4 2.4 0 0 1-2.4 2.4H5.4A2.4 2.4 0 0 1 3 18.6V5.4A2.4 2.4 0 0 1 5.4 3h13.2A2.4 2.4 0 0 1 21 5.4Zm-4.293 5.893a1 1 0 0 1 0 1.414l-4 4a1 1 0 0 1-1.414-1.414L13.586 13H8a1 1 0 1 1 0-2h5.586l-2.293-2.293a1 1 0 0 1 1.414-1.414l4 4Z" fill="#ffffff"/>
</g>
</svg>