<!DOCTYPE svg PUBLIC "-//W3C//DTD SVG 1.1//EN" "http://www.w3.org/Graphics/SVG/1.1/DTD/svg11.dtd">
<!-- Uploaded to: SVG Repo, www.svgrepo.com, Transformed by: SVG Repo Mixer Tools -->
<svg width="256px" height="256px" viewBox="0 0 24.00 24.00" fill="none" xmlns="http://www.w3.org/2000/svg" stroke="#ffffff" stroke-width="0.00024000000000000003">
<g id="SVGRepo_bgCarrier" stroke-width="0"/>
<g id="SVGRepo_tracerCarrier" stroke-linecap="round" stroke-linejoin="round" stroke="#CCCCCC" stroke-width="0.144"/>
<g id="SVGRepo_iconCarrier">
<path d="M3 2a1 1 0 1 0-2 0v20a1 1 0 1 0 2 0V2ZM5 6.6A2.6 2.6 0 0 1 7.6 4h12.8A2.6 2.6 0 0 1 23 6.6v1.8a2.6 2.6 0 0 1-2.6 2.6H7.6A2.6 2.6 0 0 1 5 8.4V6.6ZM5 15.6A2.6 2.6 0 0 1 7.6 13h4.8a2.6 2.6 0 0 1 2.6 2.6v1.8a2.6 2.6 0 0 1-2.6 2.6H7.6A2.6 2.6 0 0 1 5 17.4v-1.8Z" fill="#ffffff"/>
</g>
</svg>